<?xml version="1.0" encoding="UTF-8"?>
<svg version="1.1" xmlns="http://www.w3.org/2000/svg" width="3078" height="2468">
<path d="M0 0 C49.90633375 45.5494316 75.37288572 110.40702928 78.85988591 177.21100206 C79.36627493 189.01057955 79.20235146 200.83911961 79.19247987 212.64766905 C79.19015866 216.76754096 79.19369324 220.88740883 79.19644669 225.0072799 C79.20048618 232.24456736 79.20083272 239.48184764 79.19874074 246.71913581 C79.19562616 257.5537691 79.1982843 268.38839581 79.20203945 279.22302862 C79.20826891 297.69106243 79.2097462 316.1590939 79.20862198 334.6271286 C79.2074972 353.34018847 79.20853276 372.05324636 79.21219444 390.76630592 C79.2124241 391.94868631 79.21265375 393.1310667 79.21289036 394.34927679 C79.21383201 399.16502548 79.2147877 403.98077417 79.21576155 408.79652286 C79.22576794 458.3512505 79.2289534 507.90597727 79.22952999 557.46070578 C79.22959324 562.86394714 79.22965976 568.26718849 79.22973054 573.67042984 C79.22974823 575.02475702 79.22976561 576.37908419 79.22978266 577.73341136 C79.23017062 608.14265724 79.23234986 638.55190288 79.23491292 668.96114864 C79.23548448 675.75020628 79.23603846 682.53926392 79.23659355 689.32832156 C79.23664867 690.00223689 79.23670379 690.67615222 79.23676058 691.37048922 C79.23709509 695.46132975 79.23742886 699.55217028 79.23776215 703.64301081 C79.23792923 705.69234053 79.23809674 707.74167024 79.23826428 709.79099995 C79.24086606 741.6534246 79.2430964 773.51584926 79.24494648 805.37827396 C79.24498685 806.07248852 79.24502722 806.76670307 79.24506881 807.48195443 C79.24763161 851.7141669 79.24853135 895.94637923 79.24826848 940.17859177 C79.24825573 942.35331466 79.24824376 944.52803755 79.24823207 946.70276044 C79.24814973 961.980653 79.24804702 977.25854556 79.24793919 992.53643812 C79.24790842 996.91682863 79.24787836 1001.29721914 79.24784838 1005.67760966 C79.24782328 1009.33142423 79.24779749 1012.9852388 79.24777026 1016.63905338 C79.24725889 1085.64460306 79.2486758 1154.65015156 79.25811768 1223.65570068 C79.25821703 1224.38212213 79.25831639 1225.10854358 79.25841876 1225.8569778 C79.26153013 1248.55398458 79.26489662 1271.25099131 79.26831055 1293.94799805 C79.27181207 1317.23760445 79.27528258 1340.52721085 79.27857494 1363.81681728 C79.27872723 1364.89252045 79.27872723 1364.89252045 79.2788826 1365.98995499 C79.28523357 1410.9151659 79.28915397 1455.84037647 79.29043293 1500.76558781 C79.29045296 1501.45963163 79.29047299 1502.15367546 79.29049362 1502.86875091 C79.29136902 1533.35197108 79.29168869 1563.83519123 79.29140273 1594.31841141 C79.29128846 1606.58243537 79.29123239 1618.84645932 79.29119941 1631.11048327 C79.29119301 1633.14385212 79.29118394 1635.17722097 79.29117426 1637.21058982 C79.29103785 1668.29532599 79.2923792 1699.3800611 79.29821944 1730.46479678 C79.29834511 1731.1346245 79.29847079 1731.80445222 79.29860027 1732.49457775 C79.30062914 1743.26873169 79.30277321 1754.0428856 79.30492707 1764.81703951 C79.31375326 1809.00385844 79.3162691 1853.19067274 79.30956676 1897.37749221 C79.30865449 1903.39368964 79.3078112 1909.40988708 79.30700874 1915.42608452 C79.30676861 1917.19505339 79.30676861 1917.19505339 79.30652363 1918.999759 C79.30417259 1937.65687403 79.30852365 1956.31398119 79.31567993 1974.97109474 C79.3225797 1993.32638397 79.32231629 2011.6816616 79.31448779 2030.03695057 C79.31011379 2040.79097846 79.31116034 2051.54497216 79.32035458 2062.29899719 C79.32592018 2069.45329681 79.32414893 2076.60757107 79.3165718 2083.76186875 C79.31248543 2087.80956041 79.31135261 2091.85718512 79.31932249 2095.90487253 C79.36171059 2118.95187353 78.69539457 2141.91320881 75.3125 2164.75 C75.14258545 2165.90298584 74.9726709 2167.05597168 74.79760742 2168.24389648 C66.22039815 2223.74326252 41.08359637 2283.6706229 -3.9375 2319.6875 C-4.83210938 2320.4196875 -5.72671875 2321.151875 -6.6484375 2321.90625 C-49.97839794 2356.39558879 -104.9769598 2372.88859137 -160 2372.9375 C-160.692146 2372.93817474 -161.38429199 2372.93884949 -162.09741211 2372.93954468 C-222.45416019 2372.84723233 -281.0173843 2352.72766038 -324.9375 2310.6875 C-325.49050781 2310.16704102 -326.04351563 2309.64658203 -326.61328125 2309.11035156 C-357.02950769 2280.39345155 -372.35420783 2243.75368996 -386.7890625 2205.33203125 C-387.10728973 2204.4902684 -387.42551697 2203.64850555 -387.75338745 2202.78123474 C-389.9375 2196.92280904 -389.9375 2196.92280904 -389.9375 2194.6875 C-396.99600653 2201.65808918 -403.5611558 2209.08199724 -410.07592773 2216.55859375 C-416.94214912 2224.41084955 -424.04278814 2231.95318754 -431.4309082 2239.3112793 C-433.00524155 2240.8802236 -434.57411589 2242.45448558 -436.14257812 2244.02929688 C-441.56889681 2249.4594603 -447.08376438 2254.71595745 -452.9375 2259.6875 C-453.98614181 2260.61258438 -455.03309142 2261.53959147 -456.078125 2262.46875 C-465.93013042 2271.12398938 -476.36423147 2278.94013339 -486.9375 2286.6875 C-487.59282715 2287.16993164 -488.2481543 2287.65236328 -488.92333984 2288.14941406 C-556.90827042 2338.07728256 -637.25262014 2368.37011563 -766.9375 2388.6875 C-768.07219727 2388.80609375 -769.20689453 2388.9246875 -770.37597656 2389.046875 C-808.51737539 2392.88960664 -848.81168368 2392.55163892 -886.9375 2388.6875 C-888.28065702 2388.56154122 -889.62392466 2388.43675804 -890.96728516 2388.31298828 C-971.447245 2380.83528087 -1050.59069403 2359.52617034 -1142.56298828 2315.90576172 C-1144.34543267 2314.99126475 -1146.13075246 2314.0823687 -1147.91748047 2313.17626953 C-1162.94957517 2305.55226178 -1177.65134455 2297.63382044 -1191.9375 2288.6875 C-1192.83307617 2288.130625 -1193.72865234 2287.57375 -1194.65136719 2287 C-1221.4013709 2270.3381972 -1246.8971571 2251.78427906 -1270.85546875 2231.30078125 C-1273.67385029 2228.89668687 -1276.54921953 2226.56982006 -1279.4375 2224.25 C-1284.82323414 2219.87065122 -1289.88566799 2215.18705162 -1294.95703125 2210.453125 C-1297.20348689 2208.35839076 -1299.48223428 2206.31420331 -1301.8125 2204.3125 C-1314.2344491 2193.53202888 -1325.88394971 2181.90179237 -1337.49267578 2170.26269531 C-1339.95881342 2167.79113975 -1342.43033104 2165.32505296 -1344.90234375 2162.859375 C-1346.49771697 2161.26334177 -1348.09278039 2159.6669988 -1349.6875 2158.0703125 C-1350.41364502 2157.34619171 -1351.13979004 2156.62207092 -1351.88793945 2155.87600708 C-1355.88402819 2151.86171094 -1359.71306977 2147.7561351 -1363.40408325 2143.45903015 C-1365.7978525 2140.69354947 -1368.31063926 2138.0422765 -1370.8125 2135.375 C-1375.27576707 2130.57754372 -1379.50724429 2125.65587627 -1383.609375 2120.54296875 C-1385.75170035 2117.91538515 -1387.94903751 2115.35334482 -1390.17626953 2112.79833984 C-1396.9529605 2105.01445087 -1403.23006062 2096.90794799 -1409.43847656 2088.66699219 C-1410.78782608 2086.88514758 -1412.15019282 2085.11501878 -1413.5234375 2083.3515625 C-1445.55354947 2042.19960635 -1472.4852969 1997.19679484 -1495.9375 1950.6875 C-1496.47342773 1949.62644043 -1497.00935547 1948.56538086 -1497.56152344 1947.47216797 C-1536.78190163 1869.28483557 -1561.16777288 1784.19193842 -1583.6875 1616.5 C-1583.74684723 1615.67573517 -1583.80619446 1614.85147034 -1583.86734009 1614.00222778 C-1585.64635134 1588.7839574 -1586.14510137 1563.58473272 -1586.125 1538.3125 C-1586.12473312 1537.55730576 -1586.12446625 1536.80211151 -1586.12419128 1536.02403259 C-1586.11291983 1510.53119044 -1585.69508715 1485.12752222 -1583.9375 1459.6875 C-1583.84275391 1458.2850705 -1583.84275391 1458.2850705 -1583.74609375 1456.85430908 C-1579.55358389 1395.07002083 -1570.84188425 1334.04259054 -1556.9375 1273.6875 C-1556.77247986 1272.97025757 -1556.60745972 1272.25301514 -1556.43743896 1271.51403809 C-1540.28326673 1201.61676649 -1515.65151795 1133.98563559 -1483.9375 1069.6875 C-1483.56318848 1068.92373047 -1483.18887695 1068.15996094 -1482.80322266 1067.37304688 C-1480.55632887 1062.78951489 -1478.25796067 1058.2341589 -1475.9375 1053.6875 C-1475.4847168 1052.79450195 -1475.03193359 1051.90150391 -1474.56542969 1050.98144531 C-1466.55680481 1035.21786242 -1458.0389274 1019.8452134 -1448.9375 1004.6875 C-1448.02774414 1003.16334473 -1448.02774414 1003.16334473 -1447.09960938 1001.60839844 C-1439.12822847 988.29076679 -1430.77287132 975.2797216 -1422.0625 962.4375 C-1421.63000946 961.79972626 -1421.19751892 961.16195251 -1420.75192261 960.50485229 C-1414.61287372 951.46989047 -1408.32491471 942.54833913 -1401.9375 933.6875 C-1401.00260742 932.39005859 -1401.00260742 932.39005859 -1400.04882812 931.06640625 C-1392.46673711 920.58965304 -1384.62340507 910.38854446 -1376.37451172 900.42871094 C-1374.29246868 897.9059228 -1372.24343205 895.3565823 -1370.1875 892.8125 C-1366.59701125 888.42631686 -1362.85911279 884.19834589 -1359.04296875 880.0078125 C-1357.20832315 877.98595816 -1355.40981214 875.94071478 -1353.625 873.875 C-1344.63703743 863.58611226 -1335.18337208 853.76910083 -1325.50878906 844.12841797 C-1323.6713424 842.29639005 -1321.8393835 840.45899395 -1320.0078125 838.62109375 C-1314.15226259 832.76223598 -1308.26351068 827.04265854 -1301.9375 821.6875 C-1300.32981627 820.23304483 -1298.72510285 818.77529105 -1297.125 817.3125 C-1292.86004692 813.46821755 -1288.4888915 809.79223095 -1284.0234375 806.18359375 C-1281.78810183 804.37551844 -1279.56561795 802.55637237 -1277.3515625 800.72265625 C-1251.62255371 779.48756928 -1223.81485753 760.39139281 -1194.9375 743.6875 C-1194.10943848 743.20845215 -1193.28137695 742.7294043 -1192.42822266 742.23583984 C-1157.90805255 722.346325 -1122.38009139 705.3018573 -1084.9375 691.6875 C-1084.2536322 691.43848938 -1083.5697644 691.18947876 -1082.86517334 690.93292236 C-1024.11228486 669.60492398 -963.20875905 656.58743162 -900.99737549 650.87890625 C-899.0989681 650.70250382 -897.20152613 650.51579233 -895.30419922 650.328125 C-855.59669603 646.49814909 -813.63886065 646.86386725 -773.9375 650.6875 C-772.51143777 650.81819528 -771.08532879 650.94838113 -769.65917969 651.078125 C-684.78568701 658.89503377 -602.69725376 681.21806585 -481.67724609 740.08300781 C-478.91348569 741.70156363 -476.13925183 743.30093125 -473.36328125 744.8984375 C-456.24047532 754.81377517 -439.79508883 765.70308714 -423.79492188 777.33789062 C-420.83623998 779.48767947 -417.86888861 781.62544552 -414.90307617 783.76538086 C-412.62311974 785.41112813 -410.34466478 787.05893478 -408.06640625 788.70703125 C-404.3667318 791.38127595 -400.65483114 794.03786081 -396.9375 796.6875 C-396.28260627 795.31679219 -395.63905037 793.94066556 -395 792.5625 C-394.64035156 791.79679688 -394.28070312 791.03109375 -393.91015625 790.2421875 C-391.60587489 784.18997864 -391.79834579 778.01930178 -391.8200388 771.64138603 C-391.81948414 770.62813908 -391.81892949 769.61489213 -391.81835803 768.57094073 C-391.81771389 765.15997601 -391.82424568 761.74906238 -391.83070374 758.33810425 C-391.83169947 755.87387643 -391.8322494 753.4096484 -391.83239073 750.94542038 C-391.83369503 745.57909836 -391.83810059 740.21279211 -391.84521103 734.8464756 C-391.85575584 726.86545697 -391.86051797 718.88444227 -391.86400168 710.9034178 C-391.86998819 697.47100714 -391.88035083 684.03860333 -391.89290047 670.60619736 C-391.91074493 651.39323937 -391.92013869 632.18028225 -391.92779111 612.96731784 C-391.93090077 605.25288592 -391.93428289 597.5384541 -391.93766689 589.82402229 C-391.93804166 588.96685563 -391.93841643 588.10968896 -391.93880256 587.22654755 C-391.9477776 566.81704611 -391.95943602 546.40754643 -391.97192383 525.99804688 C-391.97246823 525.10500499 -391.97301264 524.2119631 -391.97357354 523.29185934 C-391.98628256 502.48161996 -392.00028073 481.67138194 -392.01654053 460.86114502 C-392.01723772 459.96764913 -392.0179349 459.07415325 -392.01865322 458.15358173 C-392.02217056 453.64869109 -392.02569743 449.14380046 -392.0292251 444.63890983 C-392.02992189 443.74865335 -392.03061867 442.85839686 -392.03133656 441.94116291 C-392.03274332 440.14428638 -392.03415158 438.34740986 -392.03556137 436.55053333 C-392.05885958 406.8010812 -392.07528577 377.05163134 -392.08423797 347.30217133 C-392.08551439 343.09205345 -392.08688316 338.88193561 -392.08831596 334.67181778 C-392.08859731 333.84331119 -392.08887866 333.01480459 -392.08916853 332.16119174 C-392.09390847 318.87600823 -392.10604832 305.59084145 -392.12120286 292.30566616 C-392.13634991 278.92391486 -392.14428261 265.54217485 -392.14498956 252.16041486 C-392.14563862 244.2300345 -392.15180774 236.29970517 -392.16623188 228.36933766 C-392.17643045 222.41644313 -392.17589292 216.46359681 -392.17151051 210.51069321 C-392.17136105 208.12546185 -392.17451353 205.74022708 -392.18158758 203.3550062 C-392.37742437 133.63389231 -376.33442588 63.77005793 -326.44335938 12.24462891 C-325.38108117 11.14618364 -324.32571763 10.04103079 -323.27539062 8.93115234 C-286.48834167 -29.88714598 -237.39888658 -49.73380101 -184.9375 -56.3125 C-184.11797852 -56.415625 -183.29845703 -56.51875 -182.45410156 -56.625 C-115.75990613 -63.82684139 -50.26965916 -44.43550158 0 0 Z M-942.9375 1126.6875 C-943.5154834 1127.11240723 -944.0934668 1127.53731445 -944.68896484 1127.97509766 C-951.28491238 1132.85103543 -957.60165623 1138.02016251 -963.8125 1143.375 C-964.41916504 1143.89763428 -965.02583008 1144.42026855 -965.65087891 1144.95874023 C-969.35899858 1148.19609259 -972.87813834 1151.5670861 -976.31494141 1155.09130859 C-977.95346623 1156.70320678 -979.66001057 1158.1690467 -981.4375 1159.625 C-984.58416109 1162.2784758 -987.21189471 1165.17347542 -989.87109375 1168.30859375 C-991.90758777 1170.65306418 -994.01739149 1172.91618216 -996.14794922 1175.17504883 C-1002.88315682 1182.33854983 -1009.02212847 1189.83776808 -1014.9375 1197.6875 C-1015.39511719 1198.29352051 -1015.85273437 1198.89954102 -1016.32421875 1199.52392578 C-1034.08894635 1223.15424797 -1048.67915506 1248.27880416 -1061.9375 1274.6875 C-1062.37191406 1275.54698242 -1062.80632813 1276.40646484 -1063.25390625 1277.29199219 C-1100.54079436 1351.52735606 -1116.21514872 1437.86971936 -1116.125 1520.375 C-1116.12439575 1521.40418549 -1116.1237915 1522.43337097 -1116.12316895 1523.4937439 C-1116.09546928 1540.96834722 -1115.60729249 1558.28172824 -1113.9375 1575.6875 C-1113.84275391 1576.6760498 -1113.84275391 1576.6760498 -1113.74609375 1577.68457031 C-1107.78855255 1639.09981125 -1093.46066577 1700.32067518 -1067.06005859 1756.29833984 C-1065.89358497 1758.7809651 -1064.75262255 1761.27435011 -1063.61328125 1763.76953125 C-1047.58348978 1798.55786712 -1026.26306875 1830.95350132 -1000.9375 1859.6875 C-1000.29474121 1860.41783447 -999.65198242 1861.14816895 -998.98974609 1861.90063477 C-993.21666483 1868.39166856 -987.20209429 1874.60612426 -981.0625 1880.75 C-980.14597656 1881.67876953 -979.22945312 1882.60753906 -978.28515625 1883.56445312 C-972.14838494 1889.71417121 -965.7366944 1895.28625206 -958.9375 1900.6875 C-957.72889947 1901.68794757 -956.52275398 1902.69137697 -955.3203125 1903.69921875 C-911.83642274 1939.64414668 -858.2935635 1962.2047579 -802.9375 1971.6875 C-801.57987549 1971.9352417 -801.57987549 1971.9352417 -800.19482422 1972.18798828 C-767.2663452 1978.01662442 -730.73324045 1976.85505716 -697.9375 1970.6875 C-696.76654785 1970.46787598 -695.5955957 1970.24825195 -694.38916016 1970.02197266 C-678.88581892 1967.01494161 -663.83412936 1962.9132096 -648.9375 1957.6875 C-648.09622559 1957.39681641 -647.25495117 1957.10613281 -646.38818359 1956.80664062 C-611.34109444 1944.56347009 -578.14206948 1925.88113222 -549.9375 1901.6875 C-548.97199219 1900.90503906 -548.00648438 1900.12257813 -547.01171875 1899.31640625 C-538.75975862 1892.56135447 -531.17654328 1885.14161117 -523.625 1877.625 C-523.11321198 1877.11838837 -522.60142395 1876.61177673 -522.0741272 1876.08981323 C-515.22302734 1869.29338261 -508.93905893 1862.26019506 -502.9375 1854.6875 C-501.94871897 1853.4906671 -500.95699914 1852.29624921 -499.9609375 1851.10546875 C-438.78639617 1776.93459497 -405.57325219 1679.4541362 -394.9375 1582.6875 C-394.8623114 1582.00355164 -394.7871228 1581.31960327 -394.70965576 1580.6149292 C-390.39912842 1540.91294482 -390.36205336 1500.45483465 -393.9375 1460.6875 C-394.00066406 1459.97239258 -394.06382812 1459.25728516 -394.12890625 1458.52050781 C-402.58089304 1363.51851899 -429.97970462 1265.22088752 -491.9375 1190.6875 C-492.67742188 1189.75808594 -493.41734375 1188.82867188 -494.1796875 1187.87109375 C-507.16350391 1171.6297718 -521.95941289 1155.54263339 -538.35546875 1142.7109375 C-541.16354473 1140.51035753 -543.85492335 1138.19787361 -546.5625 1135.875 C-559.43216056 1125.16133928 -573.47660014 1116.08923322 -587.9375 1107.6875 C-588.76846191 1107.2028125 -589.59942383 1106.718125 -590.45556641 1106.21875 C-622.20936098 1087.86547494 -656.93541285 1075.48894659 -692.9375 1068.6875 C-694.25282715 1068.4387915 -694.25282715 1068.4387915 -695.59472656 1068.18505859 C-701.02374467 1067.18813239 -706.46181676 1066.37976135 -711.9375 1065.6875 C-713.10587402 1065.5330542 -713.10587402 1065.5330542 -714.29785156 1065.37548828 C-794.82787866 1055.12709521 -877.96927236 1078.68496456 -942.9375 1126.6875 Z " fill="#F37630" transform="translate(2998.9375,57.3125)"/>
<path d="M0 0 C1.23556641 1.12921875 1.23556641 1.12921875 2.49609375 2.28125 C4.65010509 4.23365436 6.84527726 6.12027359 9.0625 8 C13.0717329 11.5150531 16.48486792 15.32884282 19.875 19.4375 C20.29765137 19.93717285 20.72030273 20.4368457 21.15576172 20.95166016 C29.77297722 31.15854646 37.06249992 41.95558832 43.875 53.4375 C44.25108398 54.0655957 44.62716797 54.69369141 45.01464844 55.34082031 C60.25291317 81.13855863 68.43085088 111.01113531 72.875 140.4375 C72.98682617 141.13665527 73.09865234 141.83581055 73.21386719 142.55615234 C74.79238245 152.68703345 75.12841242 162.89963069 75.41784477 173.1354723 C75.43928815 173.88955497 75.46073152 174.64363764 75.4828247 175.42057131 C76.16268926 200.37583512 76.01646382 225.34550648 76.00448872 250.30785802 C76.00094533 258.14312762 76.00340982 265.978393 76.0059446 273.81366258 C76.01051249 288.44981621 76.01041042 303.08596635 76.00766373 317.72212029 C76.0049016 332.53127361 76.00434081 347.34042463 76.00640106 362.14957809 C76.00653023 363.08884991 76.00665941 364.02812173 76.00679249 364.99585633 C76.00732583 368.82207809 76.00787455 372.64829984 76.00844277 376.47452159 C76.0137181 412.02245054 76.01409699 447.57037795 76.01129532 483.11830711 C76.00859703 517.37147225 76.00754148 551.62463666 76.00881577 585.8778019 C76.00889325 588.03283324 76.0089704 590.18786459 76.00904724 592.34289594 C76.00935773 601.00406135 76.0096764 609.66522676 76.010007 618.32639217 C76.01092383 642.5354344 76.01149456 666.74447662 76.01179314 690.95351887 C76.01180678 692.05577676 76.01182043 693.15803465 76.01183449 694.29369429 C76.01224352 729.39542544 76.01111815 764.49715636 76.00894356 799.59888744 C76.00887331 800.736698 76.00880306 801.87450856 76.00873068 803.04679822 C76.00758586 821.52172236 76.00636634 839.9966465 76.00514051 858.47157063 C76.00028537 931.72331658 76.00050915 1004.9750607 76.00537109 1078.22680664 C76.00659239 1096.68666935 76.00780348 1115.14653206 76.00894356 1133.60639477 C76.00904923 1135.31159937 76.00904923 1135.31159937 76.00915704 1137.05125256 C76.01131492 1172.11334022 76.01222717 1207.17542773 76.01179314 1242.23751545 C76.01177276 1243.88977483 76.01177276 1243.88977483 76.01175197 1245.5754132 C76.01143942 1269.76105632 76.01080564 1293.94669942 76.00988263 1318.13234253 C76.00955352 1326.78713984 76.00924044 1335.44193716 76.00893192 1344.09673447 C76.00885453 1346.24962433 76.0087758 1348.40251419 76.00869573 1350.55540405 C76.00742593 1384.78793619 76.0088468 1419.02046754 76.01154587 1453.25299958 C76.01431077 1488.70824911 76.01327601 1524.1634968 76.00801457 1559.61874606 C76.00746228 1563.43530291 76.00692557 1567.25185975 76.00640106 1571.0684166 C76.00627086 1572.00499633 76.00614065 1572.94157606 76.0060065 1573.90653699 C76.00404317 1588.66607412 76.00539762 1603.42560895 76.00817007 1618.18514587 C76.01083195 1632.73952236 76.00985686 1647.29389501 76.00515598 1661.84827102 C76.00274201 1669.61602379 76.00182595 1677.38376865 76.00556196 1685.15152111 C76.04358566 1769.01011584 76.04358566 1769.01011584 73.5625 1803.25 C73.49841949 1804.16799377 73.43433899 1805.08598755 73.36831665 1806.03179932 C67.91929018 1883.72735812 52.50642977 1959.8305189 -1.125 2093.4375 C-1.64175293 2094.47503418 -2.15850586 2095.51256836 -2.69091797 2096.58154297 C-12.5626594 2116.27337314 -23.5356327 2135.34629088 -36.125 2153.4375 C-36.56521484 2154.07316895 -37.00542969 2154.70883789 -37.45898438 2155.36376953 C-46.8045425 2168.83622132 -56.60204564 2181.8545872 -67.125 2194.4375 C-67.56537598 2194.96424316 -68.00575195 2195.49098633 -68.45947266 2196.03369141 C-79.08647008 2208.70107234 -90.33669691 2220.72050199 -102 2232.4375 C-102.68924561 2233.13141846 -103.37849121 2233.82533691 -104.08862305 2234.5402832 C-108.60514464 2239.04267198 -113.29097889 2243.28033906 -118.125 2247.4375 C-119.32802223 2248.49473061 -120.52987453 2249.55329419 -121.73046875 2250.61328125 C-129.63286565 2257.55037501 -137.66017289 2264.19046213 -146.125 2270.4375 C-147.15197998 2271.19546875 -147.15197998 2271.19546875 -148.19970703 2271.96875 C-174.46250971 2291.27570987 -201.9463365 2307.864203 -231.125 2322.4375 C-232.48455811 2323.12320068 -232.48455811 2323.12320068 -233.87158203 2323.82275391 C-269.67611868 2341.80325749 -308.34801482 2354.6346724 -347.125 2364.4375 C-348.16216156 2364.70049896 -348.16216156 2364.70049896 -349.22027588 2364.96881104 C-402.11649934 2378.34034155 -455.75490499 2387.01053342 -510.125 2391.4375 C-511.21515411 2391.52837891 -511.21515411 2391.52837891 -512.32733154 2391.62109375 C-555.62609425 2395.2088728 -599.82977984 2394.97882299 -643.125 2391.4375 C-643.88617126 2391.3766925 -644.64734253 2391.31588501 -645.43157959 2391.25323486 C-688.16622668 2387.8181085 -730.33887274 2380.96768833 -772.125 2371.4375 C-772.85511292 2371.27141235 -773.58522583 2371.10532471 -774.33746338 2370.9342041 C-822.85939639 2359.84643276 -870.34303394 2343.90005894 -916.125 2324.4375 C-917.1960498 2323.98342773 -918.26709961 2323.52935547 -919.37060547 2323.06152344 C-964.56474402 2303.79143312 -1009.42582518 2282.46803978 -1047.125 2250.4375 C-1048.17249855 2249.57469639 -1049.22071432 2248.71276301 -1050.26953125 2247.8515625 C-1064.12564588 2236.36004797 -1077.10074029 2223.68392386 -1088.125 2209.4375 C-1089.05914405 2208.30061961 -1089.99689849 2207.16669986 -1090.9375 2206.03515625 C-1125.24944154 2164.51798347 -1150.85255545 2106.42308754 -1153.125 2052.4375 C-1153.15674316 2051.72948242 -1153.18848633 2051.02146484 -1153.22119141 2050.29199219 C-1155.37000372 1993.26277691 -1132.02339976 1938.2365408 -1094 1896.5625 C-1063.14311143 1863.54932287 -1020.67591878 1843.39127118 -975.40795898 1841.31274414 C-906.24063203 1839.32592428 -841.23454214 1872.42038739 -779.8984375 1900.68359375 C-722.09790552 1927.30852583 -658.51178841 1956.30068945 -593.76171875 1956.640625 C-592.45361992 1956.64917511 -592.45361992 1956.64917511 -591.11909485 1956.65789795 C-589.27952258 1956.66728786 -587.43993395 1956.67385781 -585.6003418 1956.67773438 C-582.85758978 1956.68734205 -580.11562063 1956.71838247 -577.37304688 1956.75 C-539.84276342 1956.97520618 -502.04816546 1945.9424671 -473.125 1921.4375 C-472.31119873 1920.75131592 -472.31119873 1920.75131592 -471.48095703 1920.05126953 C-458.59319137 1909.03863786 -448.77636213 1895.94802845 -440.125 1881.4375 C-439.12533203 1879.76880859 -439.12533203 1879.76880859 -438.10546875 1878.06640625 C-411.48437465 1831.82116491 -409.0649559 1772.42513342 -408.91967773 1720.29502869 C-408.91003907 1718.05729723 -408.90002897 1715.81956735 -408.88968754 1713.58183903 C-408.86237773 1707.36808694 -408.84135769 1701.1543275 -408.82168961 1694.94054708 C-408.80859786 1690.86020746 -408.79343457 1686.77987697 -408.77787781 1682.6995461 C-408.70350197 1663.11887814 -408.64188467 1643.53818513 -408.5851509 1623.95745876 C-408.5675855 1617.90960743 -408.54932366 1611.86175847 -408.53071976 1605.81391025 C-408.24624692 1513.14058379 -408.10687509 1420.46716382 -408.06225301 1117.64901763 C-408.06249989 1115.13002782 -408.06274119 1112.61103802 -408.06298053 1110.09204822 C-408.0710577 1025.15236694 -408.08726168 940.21268765 -408.12044612 802.58753084 C-408.12878056 768.61923146 -408.13696645 734.65093204 -408.144881 700.68263255 C-408.14550759 697.99486143 -408.14613578 695.3070903 -408.14676414 692.61931918 C-408.15622582 652.10146018 -408.16476215 611.58360125 -408.17048645 571.06574154 C-408.17066743 569.78972034 -408.17066743 569.78972034 -408.17085207 568.48792093 C-408.17325717 551.50220712 -408.17553223 534.5164933 -408.17752722 517.53077944 C-408.17860587 508.35644123 -408.17974143 499.18210302 -408.18093872 490.00776482 C-408.18104519 489.18783963 -408.18115166 488.36791444 -408.18126135 487.52314303 C-408.18480898 460.48575387 -408.19234671 433.44836742 -408.20187083 406.41097975 C-408.21080841 380.98836046 -408.21669365 355.56574221 -408.21880521 330.14312139 C-408.21910817 326.52072757 -408.21944929 322.89833376 -408.2198143 319.27593994 C-408.21991997 318.21120025 -408.21991997 318.21120025 -408.22002777 317.12495067 C-408.22123435 305.92949403 -408.22581689 294.73404145 -408.23184966 283.53858647 C-408.23772127 272.5169923 -408.23990295 261.49540124 -408.23850765 250.47380532 C-408.2378693 244.59352717 -408.23878085 238.71326117 -408.2442044 232.83298523 C-408.29564687 174.21757242 -408.29564687 174.21757242 -405.875 151.9375 C-405.74714111 150.74447266 -405.61928223 149.55144531 -405.48754883 148.32226562 C-400.0809954 100.8574279 -384.17615087 56.39260852 -352.125 20.4375 C-351.444375 19.6643042 -351.444375 19.6643042 -350.75 18.87548828 C-313.0411485 -23.88174284 -258.90670928 -47.81588204 -203.125 -55.5625 C-202.28791504 -55.67964355 -201.45083008 -55.79678711 -200.58837891 -55.91748047 C-131.21965987 -65.12741298 -52.78159656 -47.41533409 0 0 Z " fill="#2581C2" transform="translate(1153.125,74.5625)"/>
<path d="M0 0 C5.23880078 0.55145271 9.97350697 1.42922093 15 3 C12.63707344 5.52588702 11.33537489 6.88820837 8 8 C5.37156116 6.99500868 4.27596315 6.55192629 3 4 C2.01 3.67 1.02 3.34 0 3 C0 2.01 0 1.02 0 0 Z " fill="#EF844D" transform="translate(2344,729)"/>
<path d="M0 0 C4.83628305 0.99043705 9.47618873 1.95698846 14 4 C11.71823587 6.07384637 10.55676517 6.98397191 7.421875 7.07421875 C6.54015625 6.94660156 5.6584375 6.81898437 4.75 6.6875 C3.41195312 6.50767578 3.41195312 6.50767578 2.046875 6.32421875 C1.03367187 6.16373047 1.03367187 6.16373047 0 6 C0 4.02 0 2.04 0 0 Z " fill="#F08F5B" transform="translate(2914,10)"/>
<path d="M0 0 C0 3 0 3 -2.3125 5.5 C-3.199375 6.325 -4.08625 7.15 -5 8 C-5.495 8.515625 -5.99 9.03125 -6.5 9.5625 C-8 11 -8 11 -10.5625 12.9375 C-13.06428544 14.77978817 -13.06428544 14.77978817 -14.0625 17.125 C-15.29100444 19.58200887 -16.49680526 19.96927275 -19 21 C-20.33625722 21.66078654 -21.67002225 22.32666398 -23 23 C-18.80711369 17.99807284 -14.44134529 13.28670487 -9.8125 8.6875 C-9.19697266 8.06810547 -8.58144531 7.44871094 -7.94726562 6.81054688 C-7.35236328 6.21693359 -6.75746094 5.62332031 -6.14453125 5.01171875 C-5.61190674 4.48022217 -5.07928223 3.94872559 -4.53051758 3.40112305 C-3 2 -3 2 0 0 Z " fill="#E58445" transform="translate(1692,884)"/>
<path d="M0 0 C0.33 0 0.66 0 1 0 C0.85980308 2.81288705 0.71312045 5.62516885 0.5625 8.4375 C0.50352539 9.64116211 0.50352539 9.64116211 0.44335938 10.86914062 C0.11328125 16.88671875 0.11328125 16.88671875 -1 18 C-1.28707076 20.97095452 -1.44862618 23.94222256 -1.62109375 26.921875 C-1.9928774 29.94213803 -2.74008877 32.2455382 -4 35 C-4.33 35 -4.66 35 -5 35 C-4.59903832 23.07139013 -2.40190128 11.66065486 0 0 Z " fill="#ED9163" transform="translate(2614,181)"/>
<path d="M0 0 C0.66 0.33 1.32 0.66 2 1 C0.46990911 4.44270451 -1.4931222 7.18925822 -4 10 C-4.99 10.33 -5.98 10.66 -7 11 C-7 10.34 -7 9.68 -7 9 C-8.98 9.66 -10.96 10.32 -13 11 C-9.0299782 6.78185183 -4.69159716 3.38772897 0 0 Z " fill="#65ABDF" transform="translate(839,61)"/>
<path d="M0 0 C0.66 0.33 1.32 0.66 2 1 C1.525625 1.7425 1.05125 2.485 0.5625 3.25 C-0.77869327 5.61050015 -1.512312 7.36648477 -2 10 C-2.99 9.67 -3.98 9.34 -5 9 C-5.33 8.34 -5.66 7.68 -6 7 C-6.763125 7.515625 -7.52625 8.03125 -8.3125 8.5625 C-9.199375 9.036875 -10.08625 9.51125 -11 10 C-11.99 9.67 -12.98 9.34 -14 9 C-11.71439353 7.4693001 -9.42237333 5.95034956 -7.125 4.4375 C-6.14853516 3.78104492 -6.14853516 3.78104492 -5.15234375 3.11132812 C-3.47374503 2.01245164 -1.73976613 0.9992182 0 0 Z " fill="#F58D61" transform="translate(2720,31)"/>
<path d="M0 0 C2.93230193 1.32120828 4.98664899 2.74638197 7.234375 5.0390625 C8.09482422 5.90917969 8.09482422 5.90917969 8.97265625 6.796875 C9.55917969 7.40015625 10.14570312 8.0034375 10.75 8.625 C11.35199219 9.23601562 11.95398437 9.84703125 12.57421875 10.4765625 C14.05405305 11.97988624 15.52764676 13.48934856 17 15 C16.01 15.495 16.01 15.495 15 16 C14.01 15.67 13.02 15.34 12 15 C12 14.34 12 13.68 12 13 C11.34 13 10.68 13 10 13 C10 12.34 10 11.68 10 11 C9.34 11 8.68 11 8 11 C7.67 10.01 7.34 9.02 7 8 C6.01 7.67 5.02 7.34 4 7 C4 6.34 4 5.68 4 5 C3.34 5 2.68 5 2 5 C2 4.34 2 3.68 2 3 C1.34 3 0.68 3 0 3 C0 2.01 0 1.02 0 0 Z " fill="#EB6E31" transform="translate(2000,1921)"/>
<path d="M0 0 C1.65 0.33 3.3 0.66 5 1 C4.67 1.99 4.34 2.98 4 4 C2.2984375 4.680625 2.2984375 4.680625 0.5625 5.375 C-3.68166358 7.31093426 -3.44070944 7.90686227 -5 12 C-7.19356235 13.88975912 -9.55082461 15.46107963 -12 17 C-10.54434981 13.81350206 -8.74189282 11.23712991 -6.5625 8.5 C-4.33686303 5.69271708 -2.13703446 2.87552037 0 0 Z " fill="#EF9063" transform="translate(2667,75)"/>
<path d="M0 0 C-1.38846826 4.16540478 -4.31780625 5.46159133 -7.875 7.6875 C-8.51308594 8.10322266 -9.15117187 8.51894531 -9.80859375 8.94726562 C-14.61076047 12 -14.61076047 12 -18 12 C-18 11.01 -18 10.02 -18 9 C-16.824375 8.62875 -15.64875 8.2575 -14.4375 7.875 C-10.34474317 6.37287116 -7.64052424 4.2310106 -4.54296875 1.20703125 C-3 0 -3 0 0 0 Z " fill="#EF6E2A" transform="translate(2508,2345)"/>
<path d="M0 0 C1.32 0.66 2.64 1.32 4 2 C3.175 2.4125 2.35 2.825 1.5 3.25 C0.675 3.8275 -0.15 4.405 -1 5 C-1 6.32 -1 7.64 -1 9 C-1.86625 9.12375 -1.86625 9.12375 -2.75 9.25 C-5.16524413 9.86285107 -5.16524413 9.86285107 -6.9375 12 C-9.30854261 14.29919283 -10.77231982 14.64136887 -14 15 C-13.319375 14.319375 -12.63875 13.63875 -11.9375 12.9375 C-11.48632812 12.48503906 -11.03515625 12.03257813 -10.5703125 11.56640625 C-9.4451972 10.44408974 -8.31430749 9.32755048 -7.1796875 8.21484375 C-6.56351563 7.60769531 -5.94734375 7.00054688 -5.3125 6.375 C-4.73113281 5.80523438 -4.14976562 5.23546875 -3.55078125 4.6484375 C-1.79748102 2.87617026 -1.79748102 2.87617026 0 0 Z " fill="#1573B7" transform="translate(695,1981)"/>
<path d="M0 0 C0.66 0.33 1.32 0.66 2 1 C1.505 1.598125 1.01 2.19625 0.5 2.8125 C-1.28276418 4.97029994 -1.28276418 4.97029994 -1 8 C-1.763125 7.9175 -2.52625 7.835 -3.3125 7.75 C-6.14583333 7.70833333 -6.14583333 7.70833333 -7.8125 10 C-8.4003125 10.99 -8.4003125 10.99 -9 12 C-8.34 12 -7.68 12 -7 12 C-7 12.66 -7 13.32 -7 14 C-8.98 14.99 -8.98 14.99 -11 16 C-11.87109375 13.86328125 -11.87109375 13.86328125 -12 11 C-10.06106375 8.77936358 -8.30137783 7.04867591 -6.0625 5.1875 C-5.48564453 4.68541016 -4.90878906 4.18332031 -4.31445312 3.66601562 C-2.88908405 2.42912511 -1.44613572 1.21254552 0 0 Z " fill="#F28F5D" transform="translate(2695,48)"/>
<path d="M0 0 C5.32550475 4.99266071 11.67026781 11.01080344 14 18 C10.69428826 17.4300497 9.05214398 16.67670954 7 14 C6.525625 12.865625 6.05125 11.73125 5.5625 10.5625 C4.04890555 7.11150466 2.64707585 5.55579737 0 3 C0 2.01 0 1.02 0 0 Z " fill="#F18E66" transform="translate(3018,78)"/>
<path d="M0 0 C0.66 0 1.32 0 2 0 C1.88936784 3.3756301 1.75891985 6.75021989 1.625 10.125 C1.5940625 11.07632812 1.563125 12.02765625 1.53125 13.0078125 C1.32252954 18.01710348 0.94494635 22.30366613 -1 27 C-1.33 27 -1.66 27 -2 27 C-1.03644647 7.99544419 -1.03644647 7.99544419 0 0 Z " fill="#E67127" transform="translate(1419,1470)"/>
<path d="M0 0 C2 3 2 3 3 5 C2.23945313 5.226875 1.47890625 5.45375 0.6953125 5.6875 C-2.62256885 7.30316396 -3.410648 8.77739296 -5.125 12 C-6.95088092 15.39515154 -7.72817457 16.81878304 -11 19 C-9.41467191 14.44435939 -7.00996919 10.68524231 -4.375 6.6875 C-3.95476563 6.04232422 -3.53453125 5.39714844 -3.1015625 4.73242188 C-2.07161759 3.15239276 -1.03634372 1.57583953 0 0 Z " fill="#F09062" transform="translate(2653,93)"/>
<path d="M0 0 C1.60597325 0.45196245 3.20972508 0.91182327 4.8125 1.375 C6.15248047 1.75785156 6.15248047 1.75785156 7.51953125 2.1484375 C10 3 10 3 13 5 C10 6 7 7 4 8 C3.34 7.67 2.68 7.34 2 7 C1.61781233 5.34385343 1.28604898 3.67542976 1 2 C0.67 1.34 0.34 0.68 0 0 Z " fill="#60AEE2" transform="translate(1080,33)"/>
<path d="M0 0 C0.14308594 0.61875 0.28617188 1.2375 0.43359375 1.875 C0.92525309 4.04102791 0.92525309 4.04102791 2.0625 6 C3 8 3 8 3 12 C2.34 12 1.68 12 1 12 C0.67 11.34 0.34 10.68 0 10 C-1.485 12.475 -1.485 12.475 -3 15 C-4.28497537 11.14507389 -3.4052209 9.59653164 -2.0625 5.8125 C-1.68222656 4.72582031 -1.30195313 3.63914062 -0.91015625 2.51953125 C-0.60980469 1.68808594 -0.30945313 0.85664062 0 0 Z " fill="#1B72B1" transform="translate(13,2046)"/>
<path d="M0 0 C1.65 0 3.3 0 5 0 C5 0.66 5 1.32 5 2 C6.65 2 8.3 2 10 2 C4.97583178 5.34944548 0.90048743 5.09834146 -5 5 C-3.68 4.67 -2.36 4.34 -1 4 C-0.67 2.68 -0.34 1.36 0 0 Z " fill="#0F77B6" transform="translate(811,2432)"/>
<path d="M0 0 C0.66 0.33 1.32 0.66 2 1 C1.3125 2.9375 1.3125 2.9375 0 5 C-3.32999173 6.07999732 -6.51955981 6.09944115 -10 6 C-6.87511433 3.47605388 -3.68685613 1.60298093 0 0 Z M-12 6 C-10 7 -10 7 -10 7 Z " fill="#1572AE" transform="translate(117,1930)"/>
<path d="M0 0 C0 4.07592821 -1.16907528 5.09830216 -4 8 C-6.55391067 9.61007412 -9.1304208 11.0434736 -12 12 C-12.66 11.67 -13.32 11.34 -14 11 C-9.38 7.37 -4.76 3.74 0 0 Z " fill="#E98445" transform="translate(1746,839)"/>
<path d="M0 0 C-1.625 2.5 -1.625 2.5 -4 5 C-7.125 5.4375 -7.125 5.4375 -10 5 C-10.66 4.34 -11.32 3.68 -12 3 C-10.5682384 2.30062798 -9.12932968 1.61587282 -7.6875 0.9375 C-6.48673828 0.36322266 -6.48673828 0.36322266 -5.26171875 -0.22265625 C-3 -1 -3 -1 0 0 Z " fill="#F18F62" transform="translate(2749,19)"/>
<path d="M0 0 C3.99996286 1.33332095 4.83782337 3.4957827 7 7 C6.34 7.66 5.68 8.32 5 9 C4.01 9 3.02 9 2 9 C0.14223235 5.86501708 -0.20140476 3.62528568 0 0 Z " fill="#EF6F20" transform="translate(1982,1899)"/>
<path d="M0 0 C0.66 0.33 1.32 0.66 2 1 C2 1.66 2 2.32 2 3 C1.01 3.8971875 1.01 3.8971875 0 4.8125 C-2.28818268 6.82120373 -2.28818268 6.82120373 -2 9.5625 C-2 10.366875 -2 11.17125 -2 12 C-4 13.8125 -4 13.8125 -6 15 C-6 14.34 -6 13.68 -6 13 C-6.66 12.67 -7.32 12.34 -8 12 C-5.36 8.04 -2.72 4.08 0 0 Z " fill="#EE7C43" transform="translate(1580,1015)"/>
<path d="M0 0 C1.98 0.66 3.96 1.32 6 2 C5.67 2.66 5.34 3.32 5 4 C3.07421875 4.5625 3.07421875 4.5625 0.6875 5 C-2.54002544 5.59749231 -5.11680802 6.41655361 -8 8 C-5.33333333 5.33333333 -2.66666667 2.66666667 0 0 Z " fill="#ED8342" transform="translate(1729,852)"/>
<path d="M0 0 C0.33 0.99 0.66 1.98 1 3 C0.01 3.99 -0.98 4.98 -2 6 C-2.33 5.67 -2.66 5.34 -3 5 C-3.99 6.485 -3.99 6.485 -5 8 C-5.99 8 -6.98 8 -8 8 C-8 8.66 -8 9.32 -8 10 C-9.98 10.99 -9.98 10.99 -12 12 C-12 11.01 -12 10.02 -12 9 C-10.03123367 7.30369687 -8.11326838 5.80463882 -6 4.3125 C-5.42765625 3.89677734 -4.8553125 3.48105469 -4.265625 3.05273438 C-2.85003468 2.02643139 -1.42580369 1.01206601 0 0 Z " fill="#1473B5" transform="translate(680,1996)"/>
<path d="M0 0 C0 3 0 3 -1.5 4.6875 C-1.995 5.120625 -2.49 5.55375 -3 6 C-3.721875 5.649375 -4.44375 5.29875 -5.1875 4.9375 C-8.3122705 3.89590983 -9.88161996 4.10903428 -13 5 C-13 4.34 -13 3.68 -13 3 C-8.71 2.01 -4.42 1.02 0 0 Z " fill="#EB864B" transform="translate(2011,721)"/>
<path d="M0 0 C0.66 0.33 1.32 0.66 2 1 C1.875 2.875 1.875 2.875 1 5 C-1.9375 6.125 -1.9375 6.125 -5 7 C-5.66 7.66 -6.32 8.32 -7 9 C-7.99 8.67 -8.98 8.34 -10 8 C-6.7 5.36 -3.4 2.72 0 0 Z " fill="#1771B5" transform="translate(78,1954)"/>
<path d="M0 0 C2.475 0.495 2.475 0.495 5 1 C4.34 2.32 3.68 3.64 3 5 C2.34 5 1.68 5 1 5 C1 5.66 1 6.32 1 7 C1.99 7 2.98 7 4 7 C4.33 8.32 4.66 9.64 5 11 C4.01 11 3.02 11 2 11 C-0.67927341 6.98108988 -0.15601248 4.75838077 0 0 Z " fill="#EF7026" transform="translate(2595,1443)"/>
<path d="M0 0 C1.35055201 2.70110402 1 5.00789006 1 8 C0.01 8.66 -0.98 9.32 -2 10 C-2.33 9.01 -2.66 8.02 -3 7 C-3.99 6.67 -4.98 6.34 -6 6 C-4.02 4.02 -2.04 2.04 0 0 Z " fill="#F38F5E" transform="translate(2679,63)"/>
<path d="M0 0 C2.04190981 0.14238837 4.08352045 0.28907028 6.125 0.4375 C7.83042969 0.55931641 7.83042969 0.55931641 9.5703125 0.68359375 C12.7540478 0.97730965 15.85510907 1.43124313 19 2 C17.35 3.32 15.7 4.64 14 6 C13.34 5.01 12.68 4.02 12 3 C9.37472973 2.49140984 9.37472973 2.49140984 6.4375 2.4375 C3.43359375 2.30859375 3.43359375 2.30859375 1 2 C0.67 1.34 0.34 0.68 0 0 Z " fill="#EA8754" transform="translate(2269,714)"/>
<path d="M0 0 C0.66 0 1.32 0 2 0 C0.4422692 3.82352106 -1.91595258 6.29205593 -5 9 C-5.99 9 -6.98 9 -8 9 C-7.67 7.35 -7.34 5.7 -7 4 C-6.030625 3.71125 -5.06125 3.4225 -4.0625 3.125 C-0.89335797 2.35785318 -0.89335797 2.35785318 0 0 Z " fill="#F26D24" transform="translate(3000,2368)"/>
<path d="M0 0 C1.9375 0.6875 1.9375 0.6875 4 2 C4.75 4.625 4.75 4.625 5 7 C4.01 7.33 3.02 7.66 2 8 C2 7.01 2 6.02 2 5 C0.02 5.99 0.02 5.99 -2 7 C-1.34 4.69 -0.68 2.38 0 0 Z " fill="#1275B5" transform="translate(19,2031)"/>
<path d="M0 0 C0.33 0.99 0.66 1.98 1 3 C0.34 3.66 -0.32 4.32 -1 5 C-0.67 3.35 -0.34 1.7 0 0 Z M-2 5 C-1.67 5 -1.34 5 -1 5 C-1 6.98 -1 8.96 -1 11 C-0.34 11 0.32 11 1 11 C1 11.99 1 12.98 1 14 C-0.32 14 -1.64 14 -3 14 C-3.99 14.495 -3.99 14.495 -5 15 C-4.39009109 11.44219804 -3.4216319 8.3171411 -2 5 Z " fill="#1574B3" transform="translate(727,1926)"/>
<path d="M0 0 C0.66 0.33 1.32 0.66 2 1 C1.67 1.99 1.34 2.98 1 4 C-0.32148827 4.37756808 -1.65835921 4.7018576 -3 5 C-3.825 5.53625 -4.65 6.0725 -5.5 6.625 C-8 8 -8 8 -10.15625 7.5859375 C-10.7646875 7.39257812 -11.373125 7.19921875 -12 7 C-10.04754815 5.80285445 -8.08785003 4.61751926 -6.125 3.4375 C-5.03445313 2.77621094 -3.94390625 2.11492188 -2.8203125 1.43359375 C-1.88960937 0.96050781 -0.95890625 0.48742187 0 0 Z " fill="#ED834C" transform="translate(1823,790)"/>
<path d="M0 0 C0.33 0.66 0.66 1.32 1 2 C1.66 2 2.32 2 3 2 C3 3.32 3 4.64 3 6 C0.69 6.33 -1.62 6.66 -4 7 C-2.79618552 4.50638429 -1.54571278 2.31856917 0 0 Z " fill="#EE6F25" transform="translate(2397,2400)"/>
<path d="M0 0 C0.99 0.33 1.98 0.66 3 1 C2.75 3.875 2.75 3.875 2 7 C-0.0625 8.375 -0.0625 8.375 -2 9 C-2 7.02 -2 5.04 -2 3 C-1.34 3 -0.68 3 0 3 C0 2.01 0 1.02 0 0 Z " fill="#F06F1F" transform="translate(3044,2305)"/>
<path d="M0 0 C2.31 0.33 4.62 0.66 7 1 C7.625 3.375 7.625 3.375 8 6 C7.34 6.66 6.68 7.32 6 8 C4.9970458 6.85675161 3.99770973 5.71032809 3 4.5625 C2.443125 3.92441406 1.88625 3.28632813 1.3125 2.62890625 C0 1 0 1 0 0 Z " fill="#1174BC" transform="translate(65,2283)"/>
<path d="M0 0 C1.125 1.625 1.125 1.625 2 4 C1.3125 7.1875 1.3125 7.1875 0 10 C-0.99 10.33 -1.98 10.66 -3 11 C-2.53199289 6.94393835 -2.12046792 3.53411321 0 0 Z " fill="#61A6D9" transform="translate(759,171)"/>
<path d="M0 0 C4.13347071 0.47239665 7.35761877 2.05174957 11 4 C9.02 4.99 9.02 4.99 7 6 C7 5.34 7 4.68 7 4 C5.02 4.66 3.04 5.32 1 6 C1 5.01 1 4.02 1 3 C0.34 2.34 -0.32 1.68 -1 1 C-0.67 0.67 -0.34 0.34 0 0 Z " fill="#6AAADB" transform="translate(1097,40)"/>
<path d="M0 0 C1.32 0 2.64 0 4 0 C3.4140625 6.15234375 3.4140625 6.15234375 3 8 C2.01 8.495 2.01 8.495 1 9 C-1.09230769 4.56923077 -1.09230769 4.56923077 -0.625 1.6875 C-0.41875 1.130625 -0.2125 0.57375 0 0 Z " fill="#1771B7" transform="translate(28,2220)"/>
<path d="M0 0 C0.66 0.33 1.32 0.66 2 1 C1.25 2.9375 1.25 2.9375 0 5 C-1.75 5.625 -1.75 5.625 -4 6 C-6.00382009 6.65509503 -8.00458132 7.31974363 -10 8 C-6.91367389 4.7373124 -4.06516496 1.97764782 0 0 Z " fill="#1872B0" transform="translate(96,1941)"/>
<path d="M0 0 C1.32 0.33 2.64 0.66 4 1 C4 1.66 4 2.32 4 3 C2.71349294 3.69710731 1.42059335 4.38242876 0.125 5.0625 C-0.95394531 5.63677734 -0.95394531 5.63677734 -2.0546875 6.22265625 C-2.69664062 6.47917969 -3.33859375 6.73570312 -4 7 C-4.66 6.67 -5.32 6.34 -6 6 C-5.34 4.68 -4.68 3.36 -4 2 C-2.68 2.33 -1.36 2.66 0 3 C0 2.01 0 1.02 0 0 Z " fill="#1276B3" transform="translate(938,2384)"/>
<path d="M0 0 C0.66 0.33 1.32 0.66 2 1 C-2.52084209 5.49335977 -5.54972485 7.73672346 -12 8 C-9.38928701 5.93318555 -6.66162161 4.06890393 -3.875 2.25 C-3.19179688 1.80140625 -2.50859375 1.3528125 -1.8046875 0.890625 C-0.91136719 0.44976563 -0.91136719 0.44976563 0 0 Z " fill="#1871B1" transform="translate(663,2008)"/>
<path d="M0 0 C0 0.66 0 1.32 0 2 C-2.64 2.66 -5.28 3.32 -8 4 C-8.66 3.01 -9.32 2.02 -10 1 C-3.71428571 -1.42857143 -3.71428571 -1.42857143 0 0 Z " fill="#1673B4" transform="translate(143,1923)"/>
<path d="M0 0 C0 3.5595477 -0.61579539 4.44549506 -3 7 C-4.9375 7.6875 -4.9375 7.6875 -7 8 C-8.11375 8.2784375 -8.11375 8.2784375 -9.25 8.5625 C-9.8275 8.706875 -10.405 8.85125 -11 9 C-7.56638098 5.36440339 -4.2026393 2.63886654 0 0 Z " fill="#EC8145" transform="translate(1763,827)"/>
<path d="M0 0 C4.75 0.875 4.75 0.875 7 2 C6 5 6 5 3.9375 6.1875 C3.298125 6.455625 2.65875 6.72375 2 7 C1.34 4.69 0.68 2.38 0 0 Z " fill="#F0844B" transform="translate(2443,762)"/>
<path d="M0 0 C3.66172475 0.62678171 6.8818995 1.64451846 10.3125 3.0625 C11.19550781 3.42472656 12.07851562 3.78695312 12.98828125 4.16015625 C13.65214844 4.43730469 14.31601563 4.71445312 15 5 C15 5.33 15 5.66 15 6 C13.02 6 11.04 6 9 6 C9 5.34 9 4.68 9 4 C8.071875 4.0825 7.14375 4.165 6.1875 4.25 C3 4 3 4 1.125 2 C0.75375 1.34 0.3825 0.68 0 0 Z " fill="#EA8652" transform="translate(2423,754)"/>
<path d="M0 0 C0 1.65 0 3.3 0 5 C-1.65 5.66 -3.3 6.32 -5 7 C-5 3 -5 3 -3.625 1.25 C-2 0 -2 0 0 0 Z " fill="#F56C1E" transform="translate(2966,2392)"/>
<path d="M0 0 C0.66 0.33 1.32 0.66 2 1 C-0.97 7.93 -0.97 7.93 -4 15 C-5.11285294 10.54858824 -4.53844936 9.16286298 -3 5 C-3 4.34 -3 3.68 -3 3 C-2.01 3 -1.02 3 0 3 C0 2.01 0 1.02 0 0 Z " fill="#1674B1" transform="translate(1165,2135)"/>
<path d="M0 0 C0.99 0.33 1.98 0.66 3 1 C3 1.99 3 2.98 3 4 C3.66 4 4.32 4 5 4 C5 4.66 5 5.32 5 6 C3.35 6.66 1.7 7.32 0 8 C0 5.36 0 2.72 0 0 Z " fill="#EC7022" transform="translate(2595,1694)"/>
<path d="M0 0 C0.66 0.33 1.32 0.66 2 1 C0.5625 3.5 0.5625 3.5 -2 6 C-5.04256578 6.4451258 -7.9465865 6.29359745 -11 6 C-7.57874946 3.12614955 -4.16111563 1.54115394 0 0 Z " fill="#EE854A" transform="translate(1883,761)"/>
<path d="M0 0 C2 3 2 3 2 7 C-0.91517292 5.92598892 -2.77810176 5.22189824 -5 3 C-4.34 3 -3.68 3 -3 3 C-3 2.34 -3 1.68 -3 1 C-2.01 0.67 -1.02 0.34 0 0 Z " fill="#0F76B8" transform="translate(140,2343)"/>
<path d="M0 0 C0.33 0.99 0.66 1.98 1 3 C-0.1796875 4.97265625 -0.1796875 4.97265625 -1.875 7.0625 C-4.16160469 9.88748028 -4.16160469 9.88748028 -6 13 C-6.99 12.67 -7.98 12.34 -9 12 C-6.03 8.04 -3.06 4.08 0 0 Z " fill="#E88042" transform="translate(1618,963)"/>
<path d="M0 0 C0.99 0.66 1.98 1.32 3 2 C2.01 2.66 1.02 3.32 0 4 C-0.433125 5.2065625 -0.433125 5.2065625 -0.875 6.4375 C-2.29002116 9.66060375 -3.9111146 10.4555573 -7 12 C-5.44298069 7.32894208 -2.91552627 3.91294315 0 0 Z " fill="#62A8DD" transform="translate(788,111)"/>
<path d="M0 0 C1.32 0 2.64 0 4 0 C2.69386058 3.91841827 1.16870152 6.32640809 -2 9 C-2.66 9 -3.32 9 -4 9 C-3.67 8.01 -3.34 7.02 -3 6 C-2.34 5.67 -1.68 5.34 -1 5 C-0.34444881 2.47266765 -0.34444881 2.47266765 0 0 Z " fill="#F06D2A" transform="translate(3008,2358)"/>
<path d="M0 0 C1.98 0.99 1.98 0.99 4 2 C4 2.66 4 3.32 4 4 C4.66 4 5.32 4 6 4 C5.67 4.99 5.34 5.98 5 7 C3.68 6.67 2.36 6.34 1 6 C0.67 4.02 0.34 2.04 0 0 Z " fill="#F66C1E" transform="translate(1618,2176)"/>
<path d="M0 0 C2.5625 2.1875 2.5625 2.1875 5 5 C4.8125 7.8125 4.8125 7.8125 4 10 C3.34 10 2.68 10 2 10 C2 8.02 2 6.04 2 4 C1.34 4 0.68 4 0 4 C0 2.68 0 1.36 0 0 Z " fill="#ED6F26" transform="translate(1966,1876)"/>
<path d="M0 0 C0.66 0.33 1.32 0.66 2 1 C0.75 3 0.75 3 -1 5 C-2.32 5 -3.64 5 -5 5 C-5.33 5.66 -5.66 6.32 -6 7 C-7.32 6.34 -8.64 5.68 -10 5 C-8.38007835 4.13624104 -6.75388139 3.28424146 -5.125 2.4375 C-4.22007813 1.96183594 -3.31515625 1.48617187 -2.3828125 0.99609375 C-1.20332031 0.50302734 -1.20332031 0.50302734 0 0 Z " fill="#E58349" transform="translate(1848,777)"/>
<path d="M0 0 C0 0.66 0 1.32 0 2 C0.66 2 1.32 2 2 2 C2 2.66 2 3.32 2 4 C0.02 4.66 -1.96 5.32 -4 6 C-3.67 4.68 -3.34 3.36 -3 2 C-3.66 1.67 -4.32 1.34 -5 1 C-3 0 -3 0 0 0 Z " fill="#1076B7" transform="translate(966,2368)"/>
<path d="M0 0 C1.9375 0.3125 1.9375 0.3125 4 1 C4.33 1.99 4.66 2.98 5 4 C5.66 4 6.32 4 7 4 C7 4.66 7 5.32 7 6 C2.25 5.25 2.25 5.25 0 3 C0 2.01 0 1.02 0 0 Z " fill="#F86B1D" transform="translate(1561,2104)"/>
<path d="M0 0 C4 4.625 4 4.625 4 8 C2.68 8.33 1.36 8.66 0 9 C0 6.03 0 3.06 0 0 Z " fill="#E87128" transform="translate(1952,1853)"/>
<path d="M0 0 C-0.33 0.99 -0.66 1.98 -1 3 C-2.98 3.33 -4.96 3.66 -7 4 C-7 3.34 -7 2.68 -7 2 C-7.66 1.67 -8.32 1.34 -9 1 C-3.375 -1.125 -3.375 -1.125 0 0 Z " fill="#EF8547" transform="translate(1949,739)"/>
<path d="M0 0 C0.66 0.33 1.32 0.66 2 1 C1.34 2.32 0.68 3.64 0 5 C-0.99 4.67 -1.98 4.34 -3 4 C-3.99 4.66 -4.98 5.32 -6 6 C-8.1875 5.625 -8.1875 5.625 -10 5 C-8.38007835 4.13624104 -6.75388139 3.28424146 -5.125 2.4375 C-4.22007812 1.96183594 -3.31515625 1.48617187 -2.3828125 0.99609375 C-1.20332031 0.50302734 -1.20332031 0.50302734 0 0 Z " fill="#6EAADD" transform="translate(878,39)"/>
<path d="M0 0 C-1.98 0.99 -1.98 0.99 -4 2 C-3.67 2.99 -3.34 3.98 -3 5 C-4.32 5 -5.64 5 -7 5 C-7 4.34 -7 3.68 -7 3 C-7.99 2.67 -8.98 2.34 -10 2 C-3.375 -1.125 -3.375 -1.125 0 0 Z " fill="#65AED7" transform="translate(893,35)"/>
<path d="M0 0 C2.125 0.375 2.125 0.375 4 1 C4 1.66 4 2.32 4 3 C3.01 3.33 2.02 3.66 1 4 C0.67 4.66 0.34 5.32 0 6 C-0.99 6 -1.98 6 -3 6 C-2.42655063 3.13275314 -2.1385485 2.1385485 0 0 Z " fill="#F96A20" transform="translate(2357,2415)"/>
<path d="M0 0 C1.32 0.33 2.64 0.66 4 1 C4 1.66 4 2.32 4 3 C4.99 3.33 5.98 3.66 7 4 C7 5.32 7 6.64 7 8 C2.60841671 6.5361389 2.12052567 4.02168662 0 0 Z " fill="#EC6F28" transform="translate(1563,2109)"/>
<path d="M0 0 C1.12383849 3.37151546 1.16190374 4.68027502 0 8 C-2.5625 9.8125 -2.5625 9.8125 -5 11 C-3.77472971 6.94718288 -2.30119506 3.55639236 0 0 Z " fill="#1374B1" transform="translate(30,2010)"/>
<path d="M0 0 C2 1 2 1 2 1 Z M-2 1 C-1.34 1.33 -0.68 1.66 0 2 C-3.465 4.97 -3.465 4.97 -7 8 C-7.66 7.01 -8.32 6.02 -9 5 C-3.7265625 1.77734375 -3.7265625 1.77734375 -2 1 Z " fill="#6BA9D8" transform="translate(862,47)"/>
<path d="M0 0 C2.33218272 0.84806644 3.44954313 1.8950996 5.0625 3.75 C2.0925 3.255 2.0925 3.255 -0.9375 2.75 C-0.9375 3.41 -0.9375 4.07 -0.9375 4.75 C-1.5975 4.75 -2.2575 4.75 -2.9375 4.75 C-3.2675 3.43 -3.5975 2.11 -3.9375 0.75 C-1.9375 -0.25 -1.9375 -0.25 0 0 Z " fill="#F68C61" transform="translate(2980.9375,43.25)"/>
<path d="M0 0 C0.66 0.33 1.32 0.66 2 1 C-1.465 3.97 -1.465 3.97 -5 7 C-5 6.34 -5 5.68 -5 5 C-5.66 5 -6.32 5 -7 5 C-7 4.34 -7 3.68 -7 3 C-6.21625 2.690625 -5.4325 2.38125 -4.625 2.0625 C-2.07669872 1.07124962 -2.07669872 1.07124962 0 0 Z " fill="#1673B7" transform="translate(1037,2317)"/>
<path d="M0 0 C0.99 0.33 1.98 0.66 3 1 C2.67 2.98 2.34 4.96 2 7 C0.62437146 5.71034824 -0.70766393 4.37310707 -2 3 C-2 2.34 -2 1.68 -2 1 C-1.34 0.67 -0.68 0.34 0 0 Z " fill="#1971BD" transform="translate(45,2251)"/>
<path d="M0 0 C2 2 2 2 3 5 C2.25 7.125 2.25 7.125 1 9 C0.01 9.33 -0.98 9.66 -2 10 C-1.34 6.7 -0.68 3.4 0 0 Z " fill="#F18E65" transform="translate(2620,159)"/>
<path d="M0 0 C1.98 0.495 1.98 0.495 4 1 C2.75023244 4.65316671 2.32901247 5.78065836 -1 8 C-1.125 2.25 -1.125 2.25 0 0 Z " fill="#1274BB" transform="translate(1121,2213)"/>
<path d="M0 0 C1.98 0 3.96 0 6 0 C6.33 0.99 6.66 1.98 7 3 C6.34 3 5.68 3 5 3 C5 2.34 5 1.68 5 1 C4.01 1.66 3.02 2.32 2 3 C1.01 3 0.02 3 -1 3 C-1 3.66 -1 4.32 -1 5 C-1.66 5 -2.32 5 -3 5 C-3 4.01 -3 3.02 -3 2 C-2.01 2 -1.02 2 0 2 C0 1.34 0 0.68 0 0 Z " fill="#EE711C" transform="translate(2183,2027)"/>
<path d="M0 0 C1.64846769 0.44876616 3.29373455 0.90930488 4.9375 1.375 C5.85402344 1.63023438 6.77054687 1.88546875 7.71484375 2.1484375 C10 3 10 3 11 5 C6.37390802 5.3227506 3.71973879 4.84450614 0 2 C0 1.34 0 0.68 0 0 Z " fill="#1D72AA" transform="translate(453,2009)"/>
<path d="M0 0 C0.33 0.66 0.66 1.32 1 2 C0.67 2.99 0.34 3.98 0 5 C-0.99 5.33 -1.98 5.66 -3 6 C-3.33 6.99 -3.66 7.98 -4 9 C-4.99 8.67 -5.98 8.34 -7 8 C-6.02133662 6.85373678 -5.04205413 5.70800212 -4.0625 4.5625 C-3.51722656 3.92441406 -2.97195313 3.28632812 -2.41015625 2.62890625 C-1.63204305 1.73008851 -0.84063472 0.84063472 0 0 Z " fill="#E48244" transform="translate(1668,907)"/>
<path d="M0 0 C1.32 0.66 2.64 1.32 4 2 C3.67 2.99 3.34 3.98 3 5 C2.01 5.33 1.02 5.66 0 6 C-0.66 5.01 -1.32 4.02 -2 3 C-1.34 2.01 -0.68 1.02 0 0 Z " fill="#F77D46" transform="translate(2525,803)"/>
<path d="M0 0 C1.32 0 2.64 0 4 0 C4 0.66 4 1.32 4 2 C3.34 2 2.68 2 2 2 C1.67 2.99 1.34 3.98 1 5 C-1.475 4.01 -1.475 4.01 -4 3 C-2.68 2.67 -1.36 2.34 0 2 C0 1.34 0 0.68 0 0 Z " fill="#1375B5" transform="translate(272,2408)"/>
<path d="M0 0 C1.98 0.99 1.98 0.99 4 2 C4 2.66 4 3.32 4 4 C4.66 4 5.32 4 6 4 C6 4.66 6 5.32 6 6 C4.35 5.67 2.7 5.34 1 5 C0.67 3.35 0.34 1.7 0 0 Z " fill="#FA6B1B" transform="translate(1714,2272)"/>
<path d="M0 0 C2.8670615 2.8670615 4 4.91591468 4 9 C2.68 8.34 1.36 7.68 0 7 C0 4.69 0 2.38 0 0 Z " fill="#EB7027" transform="translate(1630,2188)"/>
<path d="M0 0 C0.33 1.32 0.66 2.64 1 4 C0.01 4.33 -0.98 4.66 -2 5 C-2 4.01 -2 3.02 -2 2 C-3.65 2.33 -5.3 2.66 -7 3 C-4.74624683 0.74624683 -3.20799182 0 0 0 Z M-10 3 C-7 4 -7 4 -7 4 Z " fill="#1C70B7" transform="translate(644,2019)"/>
<path d="M0 0 C0.33 0 0.66 0 1 0 C1.28571429 8.57142857 1.28571429 8.57142857 -1 12 C-1.33 9.36 -1.66 6.72 -2 4 C-1.34 4 -0.68 4 0 4 C0 2.68 0 1.36 0 0 Z " fill="#1273B7" transform="translate(1204,2014)"/>
<path d="M0 0 C-2.19955316 2.52948613 -3.72870478 3.36684609 -7 4 C-7.99 4.495 -7.99 4.495 -9 5 C-8.00233891 2.50584728 -7.31383315 1.21259665 -5.0625 -0.3125 C-3 -1 -3 -1 0 0 Z " fill="#EF6E22" transform="translate(2418,1984)"/>
<path d="M0 0 C0.33 0 0.66 0 1 0 C1 1.65 1 3.3 1 5 C1.66 5.33 2.32 5.66 3 6 C1.35 7.32 -0.3 8.64 -2 10 C-1.34 6.7 -0.68 3.4 0 0 Z " fill="#E8702B" transform="translate(2587,1727)"/>
<path d="M0 0 C5.28 0.33 10.56 0.66 16 1 C16 1.33 16 1.66 16 2 C11.05 2.33 6.1 2.66 1 3 C0.67 2.01 0.34 1.02 0 0 Z " fill="#E38858" transform="translate(2209,707)"/>
<path d="M0 0 C0.66 0 1.32 0 2 0 C1.56802365 4.7517398 0.67230705 6.92000054 -3 10 C-2.01 6.7 -1.02 3.4 0 0 Z " fill="#63A6D9" transform="translate(762,160)"/>
<path d="M0 0 C3.99500618 1.3697164 6.80009492 3.25722422 10 6 C8.3125 6.8125 8.3125 6.8125 6 7 C3.48814606 4.8386373 1.49018781 2.98037561 0 0 Z " fill="#69ACD4" transform="translate(1116,49)"/>
<path d="M0 0 C-3.08888522 2.05925681 -3.70935927 2.2390374 -7.1875 2.125 C-9.0746875 2.063125 -9.0746875 2.063125 -11 2 C-11 1.34 -11 0.68 -11 0 C-3.57142857 -1.28571429 -3.57142857 -1.28571429 0 0 Z " fill="#68AED7" transform="translate(954,20)"/>
<path d="M0 0 C-2.57213134 1.61949011 -3.67669159 2.04408751 -6.75 1.625 C-7.4925 1.41875 -8.235 1.2125 -9 1 C-8 -1 -8 -1 -6.1875 -1.75 C-3.50171361 -2.05694702 -2.2747813 -1.38111722 0 0 Z " fill="#EF8D69" transform="translate(2928,15)"/>
<path d="M0 0 C1.32 0.33 2.64 0.66 4 1 C3.40138258 3.35171131 2.73075648 5.6859378 2 8 C1.01 8.495 1.01 8.495 0 9 C0 6.03 0 3.06 0 0 Z " fill="#F26E1E" transform="translate(2621,2276)"/>
<path d="M0 0 C3 2 3 2 3.6875 4.125 C3.8421875 5.053125 3.8421875 5.053125 4 6 C2.68 6.33 1.36 6.66 0 7 C0 4.69 0 2.38 0 0 Z " fill="#F26F1B" transform="translate(2549,1829)"/>
<path d="M0 0 C0.66 0.33 1.32 0.66 2 1 C1.34 2.32 0.68 3.64 0 5 C-1.65 4.67 -3.3 4.34 -5 4 C-3.36587557 2.29159719 -2.13093906 1.06546953 0 0 Z " fill="#EA8247" transform="translate(1804,801)"/>
<path d="M0 0 C3.45925163 1.2491742 6.14693203 2.67527795 9 5 C7.02 5.33 5.04 5.66 3 6 C2 4 1 2 0 0 Z " fill="#ED8449" transform="translate(2495,786)"/>
<path d="M0 0 C1.65 0 3.3 0 5 0 C5.33 0.66 5.66 1.32 6 2 C3.69 2.66 1.38 3.32 -1 4 C-0.67 2.68 -0.34 1.36 0 0 Z " fill="#0E75B7" transform="translate(906,2400)"/>
<path d="M0 0 C3 0 3 0 4.38671875 1.3125 C5.59114583 2.875 6.79557292 4.4375 8 6 C4.22454612 4.90931332 1.52956528 4.0916909 -1 1 C-0.67 0.67 -0.34 0.34 0 0 Z " fill="#1873AF" transform="translate(147,2352)"/>
<path d="M0 0 C0 0.99 0 1.98 0 3 C-2.5 5.1875 -2.5 5.1875 -5 7 C-5 5.02 -5 3.04 -5 1 C-3.35 0.67 -1.7 0.34 0 0 Z " fill="#1773B6" transform="translate(1077,2277)"/>
<path d="M0 0 C0 3.15081975 -0.27898465 4.41847698 -2 7 C-4.125 7.75 -4.125 7.75 -6 8 C-4.55746343 4.63408134 -2.66735273 2.48952921 0 0 Z " fill="#1874B0" transform="translate(56,1975)"/>
<path d="M0 0 C2.475 0.495 2.475 0.495 5 1 C4.34 2.65 3.68 4.3 3 6 C2.01 6 1.02 6 0 6 C0 4.02 0 2.04 0 0 Z " fill="#0D77BC" transform="translate(324,1954)"/>
<path d="M0 0 C1.32 0.33 2.64 0.66 4 1 C3.01 1.33 2.02 1.66 1 2 C0.39938767 3.90178785 0.39938767 3.90178785 0 6 C-0.66 6.99 -1.32 7.98 -2 9 C-2.20140476 5.37471432 -1.85776765 3.13498292 0 0 Z " fill="#EE701C" transform="translate(1437,1804)"/>
<path d="M0 0 C-1.375 2 -1.375 2 -3 4 C-3.66 4 -4.32 4 -5 4 C-5 3.34 -5 2.68 -5 2 C-5.66 2 -6.32 2 -7 2 C-7 1.34 -7 0.68 -7 0 C-3.98968256 -0.93423645 -3.13349732 -1.04449911 0 0 Z " fill="#EA8452" transform="translate(1981,730)"/>
<path d="M0 0 C0 0.99 0 1.98 0 3 C-2.3125 4.75 -2.3125 4.75 -5 6 C-5.99 5.67 -6.98 5.34 -8 5 C-4.04 2.525 -4.04 2.525 0 0 Z " fill="#ED9069" transform="translate(2714,35)"/>
<path d="M0 0 C0.99 0.33 1.98 0.66 3 1 C1.8125 2.5625 1.8125 2.5625 0 4 C-2.6875 3.6875 -2.6875 3.6875 -5 3 C-2 1 -2 1 0 0 Z " fill="#E9945C" transform="translate(2746,18)"/>
<path d="M0 0 C-2.91765 1.9451 -4.62537285 2.45276317 -8 3 C-7.67 2.01 -7.34 1.02 -7 0 C-4.3333581 -1.33332095 -2.83319697 -0.67102033 0 0 Z " fill="#EA6E35" transform="translate(2941,2409)"/>
<path d="M0 0 C0.28875 0.639375 0.5775 1.27875 0.875 1.9375 C1.82823451 4.15206079 1.82823451 4.15206079 4 5 C3.01 6.485 3.01 6.485 2 8 C0.4375 6.25 0.4375 6.25 -1 4 C-0.6875 1.75 -0.6875 1.75 0 0 Z " fill="#EE6F25" transform="translate(1702,2260)"/>
<path d="M0 0 C0.33 0 0.66 0 1 0 C1 2.31 1 4.62 1 7 C0.01 7 -0.98 7 -2 7 C-2 5.35 -2 3.7 -2 2 C-1.34 2 -0.68 2 0 2 C0 1.34 0 0.68 0 0 Z " fill="#1173C1" transform="translate(1228,1807)"/>
<path d="M0 0 C0.33 0.99 0.66 1.98 1 3 C0.34 3.66 -0.32 4.32 -1 5 C-1.6425235 7.06874034 -1.6425235 7.06874034 -2 9 C-2.99 8.67 -3.98 8.34 -5 8 C-3.35 5.36 -1.7 2.72 0 0 Z " fill="#EB7F41" transform="translate(1594,995)"/>
<path d="M0 0 C0.66 0.33 1.32 0.66 2 1 C1.01 1.33 0.02 1.66 -1 2 C-1.33 2.99 -1.66 3.98 -2 5 C-3.65 5 -5.3 5 -7 5 C-2.25 1.125 -2.25 1.125 0 0 Z " fill="#EF804F" transform="translate(1794,807)"/>
<path d="M0 0 C2.64 0.99 5.28 1.98 8 3 C7.01 3.99 6.02 4.98 5 6 C4.67 5.01 4.34 4.02 4 3 C1.98491642 2.26676204 1.98491642 2.26676204 0 2 C0 1.34 0 0.68 0 0 Z " fill="#F18F65" transform="translate(2935,17)"/>
</svg>
